<?xml version="1.0" encoding="utf-8"?>
<!-- Generator: Adobe Illustrator 18.0.0, SVG Export Plug-In . SVG Version: 6.00 Build 0)  -->
<!DOCTYPE svg PUBLIC "-//W3C//DTD SVG 1.1//EN" "http://www.w3.org/Graphics/SVG/1.1/DTD/svg11.dtd">
<svg version="1.1" id="Layer_1" xmlns="http://www.w3.org/2000/svg" xmlns:xlink="http://www.w3.org/1999/xlink" x="0px" y="0px"
	 viewBox="0 0 612 792" enable-background="new 0 0 612 792" xml:space="preserve">
<g>
	<path d="M315.3,725.2c1.8-2.4,5.2-4.7,5.2-7.1c0.9-46.2-0.9-91.8-29.9-131.4c-31.1-42.5-66.5-78.9-114.6-103.5
		c-35.9-18.3-64.2-48.3-82.7-84.1c-43.2-83.5-54.9-170.1-0.9-252.9c39.1-60,97-98,167.8-114.3c4.7-1.1,10-2.7,16.8,1.5
		c-19.9,15.8-42.4,26.6-60.8,43.3c-52.6,47.6-83.2,105.7-83.5,177.2c-0.3,56.1,19.6,103.7,67.3,136.7c18.6,12.9,34.3,29,50.3,44.6
		c18.6,18.3,29.7,41.1,36.5,66.1c8.5,31.3,17.3,62.6,28.9,94.1c0-36.7,0-73.5,0-110.2c0-6.1-1.1-12.4-0.4-18.4
		c4.9-37.5-15-62-42.8-82.2c-10.7-7.8-22.1-14.6-33.5-21.3c-59-34.2-75.7-96.4-68.2-143.1c10.5-65.6,53.4-106.2,116.2-122.6
		c73.9-19.2,164.9,44.1,171.6,124.4c5.4,64.4-18.4,111.1-71.2,144.4c-18.8,11.8-32.9,26.9-44.8,44.8c-4,6-7.1,12.5-7.4,19.9
		c-1.8,46.3,0.9,92.4,8.2,139.1c3-15.4,6.6-30.6,8.9-46.1c9.1-59.7,33.4-112.8,80.7-150.3c74.8-59.3,70.7-177,27.2-245.1
		C431,83.3,390.6,52.6,342.7,28c16.6-7.3,29.9,1.7,42.8,5.3c95.3,26.8,157.8,85.4,176.3,185.7c11.3,61.2,5.9,119.7-25.9,174.2
		c-21.5,36.9-54.2,63.3-87.1,89.1c-35,27.4-64,59.6-86.6,98.1c-20.5,34.9-28.3,71.6-20.1,116.6c17.4-57.3,49.8-99.3,91.3-134.2
		c17.9-15.1,36.4-29.3,52.8-51.5c3.6,36.1,0.2,67.4-11.9,97.8c-6.3,15.9-19,26.2-32.6,35.6c-17.6,12.2-35,24.6-52.5,37
		c-26.1,18.5-47.6,41.2-61.5,74.3c-10.1-10.6-13.2-20-11.6-31.3L315.3,725.2z M321.5,397.2c20.3-28.7,45.4-45.7,69.3-64.4
		c39.2-30.8,50-74.8,39.5-120.9c-11.3-49.3-44.9-81.7-95.7-91.8c-44.9-9-82.1,8.1-111.8,41.1c-53,58.8-31.2,143,20.2,176.7
		C269.3,355,298.8,367.9,321.5,397.2z"/>
	<path d="M316,724.6c-1-0.3-2.5-0.3-2.9-0.9c-21.9-40.1-57.1-65.8-95.6-87.6c-20-11.3-31.5-29.4-39.5-49.2
		c-10.2-25.2-17.2-51.7-25.8-78.6c7.8,2.1,11.9,6.5,15.9,10.9c18.7,20.5,40.4,37.1,63.5,52.4c54.6,36.2,85.5,86.3,83.6,153.7
		L316,724.6z"/>
	<path d="M223.9,268.3c-8.3-3.2-11.3,12.3-19.1,2.7c-5.8-7.2-2.4-12.2,3.2-18c9.5-9.8,18.9-19.2,33.7-17.4
		c24.9,3,37.2-12.6,47.6-31.1c4.2-7.5,2.2-20.2,14.7-20.3c12.8-0.1,27-4.6,38,5.8c13.4,12.6,28.8,19.4,47.1,16.4
		c13.2-2.2,20.9,6.8,29.7,13c10,7,9.4,14.2-2.7,19.1c-7.6,3-9.1,6.7-9.2,12.9c-0.2,9.2,0.2,18.4,0,27.5
		c-0.3,20.8-2.4,22.2-22.9,21.8c-10.1-0.2-14.8-3.6-15.1-14.1c-0.4-14.2-3.3-28.3-2.8-42.4c0.6-17-5.8-25.3-24.9-23.6
		c-4.5,20.3-0.5,42.6-1.8,64.6c-0.3,5.9,0.9,13.6-7.2,14.6c-10.8,1.3-22.5,5-32.4-2.5c-4.3-3.2-2.6-9.5-2.7-14.4
		c-0.1-16.3,0-32.5,0-48.6c-7.6-1.4-10,4-14.1,6.1c-16.9,8.7-26.1,21.4-22.5,41.8c1.1,6.1,3.6,15.9-6,18.1c-8.7,2-18.3,3-27-0.8
		c-2-0.9-3.5-4.9-3.7-7.6C223.6,283.8,223.9,275.7,223.9,268.3z"/>
	<path d="M314.4,170.1c-12.7,0.1-23.1-10.3-23.3-23.5c-0.3-12.2,10.8-23.8,22.9-24c11.4-0.2,20.4,9.2,20.9,21.8
		C335.5,158.5,326.4,169.9,314.4,170.1z"/>
	<path d="M380,160.4c9.8-0.2,20.5,9.4,19.5,19c-1,9.8-6.2,16.9-17.4,17.4c-11.5,0.5-19.3-7-18.6-18.6
		C364.1,168,368.5,160.8,380,160.4z"/>
	<path d="M239.2,197.8c7.7,0.4,13.2,4.5,14.2,12.4c1.2,9.2-3.2,15.6-12.6,17.4c-8.4,1.6-16.3-4.9-16.7-13.2
		C223.8,206.8,231.2,198.5,239.2,197.8z"/>
</g>
</svg>
